<?xml version="1.0" encoding="utf-8"?>
<!-- Generator: Adobe Illustrator 23.1.1, SVG Export Plug-In . SVG Version: 6.00 Build 0)  -->
<svg version="1.1" id="Layer_1" xmlns="http://www.w3.org/2000/svg" xmlns:xlink="http://www.w3.org/1999/xlink" x="0px" y="0px"
	 viewBox="0 0 500 170.9" style="enable-background:new 0 0 500 170.9;" xml:space="preserve">
<style type="text/css">
	.st0{fill:#478FCC;}
	.st1{fill:#4555A5;}
</style>
<g>
	<path class="st0" d="M75.5,69.4l29.9-23.5h34L92,86.2l47.9,38.8h-34.7l-29.7-23.5V69.4z"/>
	<path class="st0" d="M226,45.8V125h-79.2V45.8H226z M169.7,68.7v33.5h33.5V68.7H169.7z"/>
	<path class="st0" d="M286.6,116.3l-8.7,8.7h-45V45.8h22.9v56.3h14.9l4.5-4.5V45.8H298v51.8l4.5,4.5h14.9V45.8h22.9V125h-45
		L286.6,116.3z"/>
	<path class="st0" d="M347.1,68.9V45.8H370v23.1H347.1z M370,74.1V125h-22.9V74.1H370z"/>
	<path class="st0" d="M68.7,101.5V125H45.8V45.8h22.9v23.5V101.5z"/>
	<rect x="394.2" y="74.1" class="st1" width="56" height="25.2"/>
</g>
</svg>
